<svg width="16" height="17" viewBox="0 0 16 17" fill="none" xmlns="http://www.w3.org/2000/svg">
<g id="Verified tick" clip-path="url(#clip0_897_9908)">
<path id="Vector" d="M12.3558 3.33308C12.5077 3.7006 12.7994 3.99272 13.1667 4.14524L14.4546 4.6787C14.8221 4.83094 15.1142 5.12295 15.2664 5.49049C15.4186 5.85803 15.4186 6.271 15.2664 6.63854L14.7333 7.92551C14.581 8.29321 14.5808 8.7066 14.7338 9.07412L15.266 10.3607C15.3414 10.5427 15.3803 10.7379 15.3803 10.9349C15.3804 11.132 15.3416 11.3271 15.2661 11.5092C15.1907 11.6913 15.0802 11.8567 14.9408 11.996C14.8014 12.1353 14.636 12.2458 14.4539 12.3212L13.1669 12.8543C12.7994 13.0062 12.5073 13.2979 12.3548 13.6652L11.8213 14.9531C11.6691 15.3206 11.3771 15.6126 11.0095 15.7649C10.642 15.9171 10.229 15.9171 9.86148 15.7649L8.57452 15.2318C8.20697 15.0799 7.79415 15.0802 7.42682 15.2327L6.13894 15.7653C5.7716 15.9172 5.35899 15.9171 4.99175 15.765C4.62451 15.6129 4.33266 15.3212 4.18031 14.9541L3.64669 13.6658C3.49473 13.2983 3.20305 13.0061 2.83576 12.8536L1.54787 12.3202C1.18049 12.168 0.888568 11.8762 0.736271 11.5088C0.583973 11.1415 0.583767 10.7287 0.735696 10.3613L1.26877 9.07429C1.42064 8.70674 1.42033 8.29392 1.26791 7.9266L0.735599 6.63779C0.660128 6.45575 0.621266 6.26062 0.621235 6.06356C0.621203 5.86649 0.660002 5.67136 0.735415 5.48929C0.810828 5.30723 0.921377 5.14181 1.06074 5.00249C1.20011 4.86316 1.36557 4.75267 1.54765 4.67731L2.83462 4.14424C3.20181 3.99241 3.49376 3.70109 3.64639 3.33423L4.17985 2.04634C4.33209 1.6788 4.6241 1.38679 4.99164 1.23455C5.35918 1.08231 5.77215 1.08231 6.13969 1.23455L7.42666 1.76762C7.79421 1.91949 8.20703 1.91918 8.57435 1.76676L9.86278 1.23537C10.2303 1.08322 10.6431 1.08325 11.0106 1.23546C11.3781 1.38767 11.6701 1.6796 11.8223 2.04704L12.3559 3.33532L12.3558 3.33308Z" fill="#1671D9"/>
<path id="Vector_2" fill-rule="evenodd" clip-rule="evenodd" d="M11.1333 6.40242C11.2401 6.23454 11.276 6.03108 11.2328 5.83679C11.1897 5.6425 11.0711 5.47331 10.9033 5.36642C10.7354 5.25954 10.5319 5.22373 10.3376 5.26686C10.1433 5.31 9.97414 5.42854 9.86726 5.59642L6.93026 10.2114L5.58626 8.53142C5.46201 8.37601 5.2811 8.27632 5.08335 8.25428C4.88559 8.23225 4.68718 8.28967 4.53176 8.41392C4.37634 8.53818 4.27665 8.71908 4.25462 8.91684C4.23258 9.1146 4.29001 9.31301 4.41426 9.46842L6.41426 11.9684C6.4888 12.0617 6.58453 12.1359 6.6935 12.1847C6.80246 12.2335 6.92151 12.2556 7.04075 12.2492C7.15998 12.2427 7.27595 12.2079 7.37901 12.1476C7.48206 12.0873 7.56923 12.0032 7.63326 11.9024L11.1333 6.40242Z" fill="white"/>
</g>
<defs>
<clipPath id="clip0_897_9908">
<rect width="16" height="16" fill="white" transform="translate(0 0.5)"/>
</clipPath>
</defs>
</svg>
