<svg width="16" height="17" viewBox="0 0 16 17" fill="none" xmlns="http://www.w3.org/2000/svg">
<path d="M4.98755 6.73145H1.98755V3.73145" stroke="black" stroke-width="0.666667" stroke-linecap="round" stroke-linejoin="round"/>
<path d="M11.8875 4.61192C11.3773 4.10093 10.7713 3.69554 10.1043 3.41895C9.43721 3.14237 8.72217 3 8.00005 3C7.27792 3 6.56289 3.14237 5.89583 3.41895C5.22878 3.69554 4.6228 4.10093 4.11255 4.61192L1.98755 6.73067" stroke="black" stroke-width="0.666667" stroke-linecap="round" stroke-linejoin="round"/>
<path d="M11.0125 10.2686H14.0125V13.2686" stroke="black" stroke-width="0.666667" stroke-linecap="round" stroke-linejoin="round"/>
<path d="M4.11255 12.3873C4.62279 12.8983 5.22878 13.3037 5.89583 13.5803C6.56289 13.8569 7.27793 13.9992 8.00005 13.9992C8.72217 13.9992 9.43721 13.8569 10.1043 13.5803C10.7713 13.3037 11.3773 12.8983 11.8875 12.3873L14.0125 10.2686" stroke="black" stroke-width="0.666667" stroke-linecap="round" stroke-linejoin="round"/>
</svg>
