<svg width="24" height="24" viewBox="0 0 24 24" fill="none" xmlns="http://www.w3.org/2000/svg">
<path d="M5.26855 10.4998C5.26855 9.61584 5.44266 8.74054 5.78094 7.92387C6.11921 7.10719 6.61503 6.36515 7.24009 5.74009C7.86514 5.11504 8.60719 4.61922 9.42386 4.28094C10.2405 3.94266 11.1158 3.76855 11.9998 3.76855C12.8838 3.76855 13.7591 3.94266 14.5757 4.28094C15.3924 4.61922 16.1345 5.11504 16.7595 5.74009C17.3846 6.36515 17.8804 7.10719 18.2187 7.92387C18.5569 8.74054 18.731 9.61584 18.731 10.4998V10.4998C18.731 13.8561 19.4342 15.8061 20.0529 16.8748C20.1186 16.9886 20.1533 17.1177 20.1534 17.2491C20.1535 17.3806 20.1191 17.5097 20.0536 17.6237C19.9881 17.7376 19.8938 17.8323 19.7801 17.8983C19.6665 17.9644 19.5375 17.9993 19.406 17.9998H4.59355C4.46212 17.9993 4.33312 17.9644 4.21948 17.8983C4.10583 17.8323 4.01153 17.7376 3.94601 17.6237C3.8805 17.5097 3.84608 17.3806 3.84619 17.2491C3.84631 17.1177 3.88096 16.9886 3.94667 16.8748C4.56542 15.8061 5.26855 13.8561 5.26855 10.4998Z" stroke="black" stroke-linecap="round" stroke-linejoin="round"/>
<path d="M9 18V18.75C9 19.5456 9.31607 20.3087 9.87868 20.8713C10.4413 21.4339 11.2044 21.75 12 21.75C12.7956 21.75 13.5587 21.4339 14.1213 20.8713C14.6839 20.3087 15 19.5456 15 18.75V18" stroke="black" stroke-linecap="round" stroke-linejoin="round"/>
<path d="M17.1938 2.25C18.7209 3.21395 19.9534 4.57938 20.7563 6.19688" stroke="black" stroke-linecap="round" stroke-linejoin="round"/>
<path d="M3.24365 6.19688C4.04664 4.57938 5.2791 3.21395 6.80615 2.25" stroke="black" stroke-linecap="round" stroke-linejoin="round"/>
</svg>
