<svg width="24" height="25" viewBox="0 0 24 25" fill="none" xmlns="http://www.w3.org/2000/svg">
<path d="M6.7125 14L3 17V5C3 4.80109 3.07902 4.61032 3.21967 4.46967C3.36032 4.32902 3.55109 4.25 3.75 4.25H15.75C15.9489 4.25 16.1397 4.32902 16.2803 4.46967C16.421 4.61032 16.5 4.80109 16.5 5V13.25C16.5 13.4489 16.421 13.6397 16.2803 13.7803C16.1397 13.921 15.9489 14 15.75 14H6.7125Z" stroke="black" stroke-linecap="round" stroke-linejoin="round"/>
<path d="M7.5 14V17.75C7.5 17.9489 7.57902 18.1397 7.71967 18.2803C7.86032 18.421 8.05109 18.5 8.25 18.5H17.2875L21 21.5V9.5C21 9.30109 20.921 9.11032 20.7803 8.96967C20.6397 8.82902 20.4489 8.75 20.25 8.75H16.5" stroke="black" stroke-linecap="round" stroke-linejoin="round"/>
</svg>
