<svg width="20" height="21" viewBox="0 0 20 21" fill="none" xmlns="http://www.w3.org/2000/svg">
<path d="M10.8327 3.00033C10.8327 2.54009 10.4596 2.16699 9.99935 2.16699C9.53911 2.16699 9.16602 2.54009 9.16602 3.00033V10.9885L6.42194 8.2444C6.0965 7.91897 5.56886 7.91897 5.24343 8.2444C4.91799 8.56984 4.91799 9.09748 5.24343 9.42291L9.41009 13.5896C9.73553 13.915 10.2632 13.915 10.5886 13.5896L14.7553 9.42291C15.0807 9.09748 15.0807 8.56984 14.7553 8.2444C14.4298 7.91897 13.9022 7.91897 13.5768 8.2444L10.8327 10.9885V3.00033Z" fill="#667185"/>
<path d="M2.49935 12.167C2.95959 12.167 3.33268 12.5401 3.33268 13.0003V14.0003C3.33268 14.7141 3.33333 15.1994 3.36398 15.5745C3.39383 15.9398 3.44793 16.1266 3.51434 16.257C3.67413 16.5706 3.9291 16.8255 4.2427 16.9853C4.37303 17.0517 4.55987 17.1058 4.92522 17.1357C5.30029 17.1663 5.78553 17.167 6.49935 17.167H13.4994C14.2132 17.167 14.6984 17.1663 15.0735 17.1357C15.4388 17.1058 15.6257 17.0517 15.756 16.9853C16.0696 16.8255 16.3246 16.5706 16.4844 16.257C16.5508 16.1266 16.6049 15.9398 16.6347 15.5745C16.6654 15.1994 16.666 14.7141 16.666 14.0003V13.0003C16.666 12.5401 17.0391 12.167 17.4993 12.167C17.9596 12.167 18.3327 12.5401 18.3327 13.0003V14.0348C18.3327 14.7056 18.3327 15.2592 18.2959 15.7102C18.2576 16.1786 18.1754 16.6092 17.9694 17.0136C17.6498 17.6408 17.1399 18.1508 16.5127 18.4703C16.1082 18.6764 15.6776 18.7586 15.2092 18.7968C14.7582 18.8337 14.2046 18.8337 13.5338 18.8337H6.46493C5.79413 18.8337 5.24049 18.8337 4.7895 18.7968C4.32108 18.7586 3.89049 18.6764 3.48605 18.4703C2.85884 18.1508 2.34891 17.6408 2.02933 17.0136C1.82325 16.6092 1.74112 16.1786 1.70284 15.7102C1.666 15.2592 1.66601 14.7056 1.66602 14.0348V13.0003C1.66602 12.5401 2.03911 12.167 2.49935 12.167Z" fill="#667185"/>
</svg>
