<svg width="16" height="17" viewBox="0 0 16 17" fill="none" xmlns="http://www.w3.org/2000/svg">
<path d="M3.625 14C4.02282 14 4.40436 13.842 4.68566 13.5607C4.96696 13.2794 5.125 12.8978 5.125 12.5C5.125 12.1022 4.96696 11.7206 4.68566 11.4393C4.40436 11.158 4.02282 11 3.625 11H2.75V14H3.625Z" stroke="black" stroke-width="0.666667" stroke-linecap="round" stroke-linejoin="round"/>
<path d="M8.125 14C8.88439 14 9.5 13.3284 9.5 12.5C9.5 11.6716 8.88439 11 8.125 11C7.36561 11 6.75 11.6716 6.75 12.5C6.75 13.3284 7.36561 14 8.125 14Z" stroke="black" stroke-width="0.666667" stroke-linecap="round" stroke-linejoin="round"/>
<path d="M13.25 13.6562C13.0108 13.8749 12.6991 13.9974 12.375 14C11.6125 14 11 13.3313 11 12.5C11 11.6687 11.6125 11 12.375 11C12.6991 11.0026 13.0108 11.1251 13.25 11.3438" stroke="black" stroke-width="0.666667" stroke-linecap="round" stroke-linejoin="round"/>
<path d="M3 8.5V3C3 2.86739 3.05268 2.74021 3.14645 2.64645C3.24021 2.55268 3.36739 2.5 3.5 2.5H9.5L13 6V8.5" stroke="black" stroke-width="0.666667" stroke-linecap="round" stroke-linejoin="round"/>
<path d="M9.5 2.5V6H13" stroke="black" stroke-width="0.666667" stroke-linecap="round" stroke-linejoin="round"/>
</svg>
