<svg width="32" height="33" viewBox="0 0 32 33" fill="none" xmlns="http://www.w3.org/2000/svg">
<g clip-path="url(#clip0_1110_43373)">
<g clip-path="url(#clip1_1110_43373)">
<path fill-rule="evenodd" clip-rule="evenodd" d="M3.66797 0.5C3.11568 0.5 2.66797 0.947715 2.66797 1.5V31.5C2.66797 32.0523 3.11568 32.5 3.66797 32.5H28.3346C28.8869 32.5 29.3346 32.0523 29.3346 31.5V5.83333L24.0013 0.5H3.66797Z" fill="#F7F9FC"/>
<path fill-rule="evenodd" clip-rule="evenodd" d="M24.002 0.5V5.83333H29.3353L24.002 0.5Z" fill="#98A2B3"/>
</g>
<rect x="1.33398" y="14.5" width="29.3333" height="10" rx="1" fill="#C548F1"/>
<path d="M11.0334 16.6818H12.0788V20.7727C12.0769 21.1477 11.9974 21.4706 11.8402 21.7415C11.683 22.0104 11.4633 22.2178 11.1811 22.3636C10.9008 22.5076 10.5741 22.5795 10.201 22.5795C9.86009 22.5795 9.55327 22.5189 9.28054 22.3977C9.00971 22.2746 8.79474 22.0928 8.63565 21.8523C8.47656 21.6117 8.39702 21.3125 8.39702 20.9545H9.44531C9.44721 21.1117 9.4813 21.2472 9.54759 21.3608C9.61577 21.4744 9.70952 21.5616 9.82884 21.6222C9.94815 21.6828 10.0855 21.7131 10.2408 21.7131C10.4093 21.7131 10.5523 21.678 10.6697 21.608C10.7872 21.536 10.8762 21.4299 10.9368 21.2898C10.9993 21.1496 11.0315 20.9773 11.0334 20.7727V16.6818ZM13.2223 22.5V16.6818H15.4041C15.8511 16.6818 16.2261 16.7652 16.5291 16.9318C16.834 17.0985 17.0642 17.3277 17.2195 17.6193C17.3767 17.9091 17.4553 18.2386 17.4553 18.608C17.4553 18.9811 17.3767 19.3125 17.2195 19.6023C17.0623 19.892 16.8303 20.1203 16.5234 20.2869C16.2166 20.4517 15.8388 20.5341 15.3899 20.5341H13.9439V19.6676H15.2479C15.5092 19.6676 15.7232 19.6222 15.8899 19.5312C16.0566 19.4403 16.1797 19.3153 16.2592 19.1562C16.3407 18.9972 16.3814 18.8144 16.3814 18.608C16.3814 18.4015 16.3407 18.2197 16.2592 18.0625C16.1797 17.9053 16.0556 17.7831 15.8871 17.696C15.7204 17.607 15.5054 17.5625 15.2422 17.5625H14.2763V22.5H13.2223ZM22.2685 18.5398C22.2211 18.3864 22.1558 18.2491 22.0724 18.1278C21.991 18.0047 21.8925 17.8996 21.777 17.8125C21.6634 17.7254 21.5327 17.66 21.3849 17.6165C21.2372 17.571 21.0762 17.5483 20.902 17.5483C20.5895 17.5483 20.3111 17.6269 20.0668 17.7841C19.8224 17.9413 19.6302 18.1723 19.4901 18.4773C19.3518 18.7803 19.2827 19.1496 19.2827 19.5852C19.2827 20.0246 19.3518 20.3968 19.4901 20.7017C19.6283 21.0066 19.8205 21.2386 20.0668 21.3977C20.313 21.5549 20.599 21.6335 20.9247 21.6335C21.2202 21.6335 21.4759 21.5767 21.6918 21.4631C21.9096 21.3494 22.0772 21.1884 22.1946 20.9801C22.312 20.7699 22.3707 20.5237 22.3707 20.2415L22.6094 20.2784H21.0298V19.4545H23.3906V20.1534C23.3906 20.6515 23.2846 21.0824 23.0724 21.446C22.8603 21.8097 22.5687 22.09 22.1974 22.2869C21.8262 22.482 21.4001 22.5795 20.919 22.5795C20.383 22.5795 19.9124 22.4593 19.5071 22.2188C19.1037 21.9763 18.7884 21.6326 18.5611 21.1875C18.3357 20.7405 18.223 20.2102 18.223 19.5966C18.223 19.1269 18.2893 18.7074 18.4219 18.3381C18.5563 17.9688 18.7438 17.6553 18.9844 17.3977C19.2249 17.1383 19.5071 16.9413 19.831 16.8068C20.1548 16.6705 20.5071 16.6023 20.8878 16.6023C21.2098 16.6023 21.5099 16.6496 21.7884 16.7443C22.0668 16.8371 22.3139 16.9697 22.5298 17.142C22.7476 17.3144 22.9266 17.5189 23.0668 17.7557C23.2069 17.9924 23.2988 18.2538 23.3423 18.5398H22.2685Z" fill="white"/>
</g>
<defs>
<clipPath id="clip0_1110_43373">
<rect width="32" height="32" fill="white" transform="translate(0 0.5)"/>
</clipPath>
<clipPath id="clip1_1110_43373">
<rect width="26.6667" height="32" fill="white" transform="translate(2.66797 0.5)"/>
</clipPath>
</defs>
</svg>
