<svg width="16" height="17" viewBox="0 0 16 17" fill="none" xmlns="http://www.w3.org/2000/svg">
<path d="M7.5 13.5H2.5C2.36739 13.5 2.24021 13.4473 2.14645 13.3536C2.05268 13.2598 2 13.1326 2 13V4.5C2 4.36739 2.05268 4.24021 2.14645 4.14645C2.24021 4.05268 2.36739 4 2.5 4H5.83125C5.93936 4.00044 6.04449 4.03549 6.13125 4.1L7.86875 5.4C7.95551 5.46451 8.06064 5.49956 8.16875 5.5H13.5C13.6326 5.5 13.7598 5.55268 13.8536 5.64645C13.9473 5.74021 14 5.86739 14 6V8" stroke="black" stroke-width="0.666667" stroke-linecap="round" stroke-linejoin="round"/>
<path d="M11.75 12.9062L13.6062 14L13.1 11.9625L14.75 10.6L12.5813 10.4312L11.75 8.5L10.9187 10.4312L8.75 10.6L10.4 11.9625L9.89375 14L11.75 12.9062Z" stroke="black" stroke-width="0.666667" stroke-linecap="round" stroke-linejoin="round"/>
</svg>
