<svg width="16" height="17" viewBox="0 0 16 17" fill="none" xmlns="http://www.w3.org/2000/svg">
<path d="M5.79375 13.9999H3C2.86739 13.9999 2.74022 13.9473 2.64645 13.8535C2.55268 13.7597 2.5 13.6326 2.5 13.4999V10.7062C2.49978 10.6413 2.51236 10.5769 2.53702 10.5169C2.56169 10.4568 2.59796 10.4022 2.64375 10.3562L10.1438 2.8562C10.1903 2.80895 10.2457 2.77144 10.3069 2.74583C10.3681 2.72022 10.4337 2.70703 10.5 2.70703C10.5663 2.70703 10.632 2.72022 10.6931 2.74583C10.7543 2.77144 10.8097 2.80895 10.8563 2.8562L13.6438 5.6437C13.691 5.69022 13.7285 5.74568 13.7541 5.80684C13.7797 5.868 13.7929 5.93364 13.7929 5.99995C13.7929 6.06625 13.7797 6.13189 13.7541 6.19305C13.7285 6.25421 13.691 6.30967 13.6438 6.3562L6.14375 13.8562C6.09773 13.902 6.04313 13.9383 5.98307 13.9629C5.92301 13.9876 5.85868 14.0002 5.79375 13.9999V13.9999Z" stroke="black" stroke-width="0.666667" stroke-linecap="round" stroke-linejoin="round"/>
<path d="M8.5 4.5L12 8" stroke="black" stroke-width="0.666667" stroke-linecap="round" stroke-linejoin="round"/>
</svg>
