<svg width="24" height="25" viewBox="0 0 24 25" fill="none" xmlns="http://www.w3.org/2000/svg">
<path d="M12.4125 18.3781L17.1375 21.3781C17.7469 21.7625 18.4969 21.1906 18.3187 20.4875L16.95 15.1063C16.913 14.9571 16.9189 14.8005 16.967 14.6546C17.0151 14.5086 17.1034 14.3792 17.2219 14.2813L21.4594 10.7469C22.0125 10.2875 21.7312 9.3594 21.0094 9.31252L15.4781 8.95627C15.3272 8.94749 15.1821 8.89494 15.0606 8.80503C14.939 8.71513 14.8463 8.59177 14.7937 8.45002L12.7312 3.25627C12.6767 3.10618 12.5772 2.97653 12.4464 2.88491C12.3156 2.79329 12.1597 2.74414 12 2.74414C11.8403 2.74414 11.6844 2.79329 11.5536 2.88491C11.4228 2.97653 11.3233 3.10618 11.2687 3.25627L9.20625 8.45002C9.15368 8.59177 9.06096 8.71513 8.93943 8.80503C8.81789 8.89494 8.67279 8.94749 8.52187 8.95627L2.99062 9.31252C2.26875 9.3594 1.9875 10.2875 2.54062 10.7469L6.77812 14.2813C6.89656 14.3792 6.98492 14.5086 7.03302 14.6546C7.08112 14.8005 7.08701 14.9571 7.05 15.1063L5.78437 20.0938C5.56875 20.9375 6.46875 21.6219 7.19062 21.1625L11.5875 18.3781C11.7108 18.2997 11.8539 18.2581 12 18.2581C12.1461 18.2581 12.2892 18.2997 12.4125 18.3781V18.3781Z" stroke="black" stroke-linecap="round" stroke-linejoin="round"/>
</svg>
