<svg width="16" height="17" viewBox="0 0 16 17" fill="none" xmlns="http://www.w3.org/2000/svg">
<path d="M12.15 12.775L15 8.50002L12.15 4.22502C12.1048 4.15531 12.0427 4.09814 11.9695 4.05881C11.8963 4.01948 11.8143 3.99926 11.7312 4.00002H2.5C2.36739 4.00002 2.24021 4.0527 2.14645 4.14647C2.05268 4.24024 2 4.36741 2 4.50002V12.5C2 12.6326 2.05268 12.7598 2.14645 12.8536C2.24021 12.9473 2.36739 13 2.5 13H11.7312C11.8143 13.0008 11.8963 12.9806 11.9695 12.9412C12.0427 12.9019 12.1048 12.8447 12.15 12.775V12.775Z" stroke="black" stroke-width="0.666667" stroke-linecap="round" stroke-linejoin="round"/>
</svg>
